<svg xmlns="http://www.w3.org/2000/svg"
     viewBox="0 0 18 18">
  <path id="cut" class="normal" d="M 2.8,2 C 2,2.6 2,3.6 2.8,4.5 L 7.5,10.1 6.7,11 C 6.3,10.6 5.6,10 4.5,10 c -1.5,0 -3,1.3 -3,3 0,1.7 1.6,3 3,3 2,0 3.1,-2.5 4.5,-4 1.5,1.7 2.6,4 4.5,4 1.4,0 3,-1.5 3,-3 0,-1.7 -1.2,-3 -3,-3 -1.2,0 -1.8,0.6 -2.2,1 L 10.5,10.1 15.2,4.5 C 15.8,3.6 15.7,2.6 15,2 L 9,8.5 Z m 10.7,9 c 1.3,0 2,1 2,2 0,1 -1,2 -2,2 -1,0 -2,-1 -2,-2 0,-1 0.7,-2 2,-2 z m -9,0 C 5.6,11 6.5,12 6.5,13 6.5,14 5.6,15 4.5,15 3.4,15 2.5,14 2.5,13 2.5,12 3.4,11 4.5,11 Z"/>
</svg>