<?xml version="1.0" encoding="UTF-8"?>
<svg width="16px" height="16px" viewBox="0 0 16 16" version="1.1" xmlns="http://www.w3.org/2000/svg" xmlns:xlink="http://www.w3.org/1999/xlink">
    <!-- Generator: Sketch 46.1 (44463) - http://www.bohemiancoding.com/sketch -->
    <title>Artboard 2 Copy 22</title>
    <desc>Created with Sketch.</desc>
    <defs></defs>
    <g id="Page-1" stroke="none" stroke-width="1" fill="none" fill-rule="evenodd">
        <g id="Artboard-2-Copy-22" fill-rule="nonzero" fill="#000000">
            <g id="Group-Copy" transform="translate(1.000000, 3.000000)">
                <path d="M5.99972432,2.95890758 C6.10684283,4.41852197 5.9162848,5.7339265 5.41914503,6.8939193 C4.88848747,8.13212028 3.89124,9.12936774 2.46831476,9.8835617 C1.98033711,10.1422048 1.3750814,9.95629242 1.1164383,9.46831476 C0.857795195,8.98033711 1.04370758,8.3750814 1.53168524,8.1164383 C2.57337364,7.56431154 3.24279284,6.89489234 3.58085497,6.1060807 C3.60589048,6.04766451 3.62988758,5.98855994 3.65284338,5.92876334 C3.44267426,5.97540412 3.22420947,6 3,6 C1.34314575,6 1.11022302e-16,4.65685425 1.11022302e-16,3 C1.11022302e-16,1.34314575 1.34314575,2.22044605e-16 3,2.22044605e-16 C4.64313507,2.22044605e-16 5.97773531,1.32099466 5.99972432,2.95890758 L5.99972432,2.95890758 Z" id="Combined-Shape"></path>
            </g>
            <g id="Group-Copy-3" transform="translate(8.000000, 3.000000)">
                <path d="M5.99972432,2.95890758 C6.10684283,4.41852197 5.9162848,5.7339265 5.41914503,6.8939193 C4.88848747,8.13212028 3.89124,9.12936774 2.46831476,9.8835617 C1.98033711,10.1422048 1.3750814,9.95629242 1.1164383,9.46831476 C0.857795195,8.98033711 1.04370758,8.3750814 1.53168524,8.1164383 C2.57337364,7.56431154 3.24279284,6.89489234 3.58085497,6.1060807 C3.60589048,6.04766451 3.62988758,5.98855994 3.65284338,5.92876334 C3.44267426,5.97540412 3.22420947,6 3,6 C1.34314575,6 1.11022302e-16,4.65685425 1.11022302e-16,3 C1.11022302e-16,1.34314575 1.34314575,2.22044605e-16 3,2.22044605e-16 C4.64313507,2.22044605e-16 5.97773531,1.32099466 5.99972432,2.95890758 L5.99972432,2.95890758 Z" id="Combined-Shape"></path>
            </g>
        </g>
    </g>
</svg>