<?xml version="1.0" encoding="UTF-8"?>
<svg width="16px" height="16px" viewBox="0 0 16 16" version="1.1" xmlns="http://www.w3.org/2000/svg" xmlns:xlink="http://www.w3.org/1999/xlink">
    <!-- Generator: Sketch 46.1 (44463) - http://www.bohemiancoding.com/sketch -->
    <title>Artboard 2</title>
    <desc>Created with Sketch.</desc>
    <defs></defs>
    <g id="Page-1" stroke="none" stroke-width="1" fill="none" fill-rule="evenodd">
        <g id="Artboard-2" fill-rule="nonzero" fill="#000000">
            <g id="Group-Copy" transform="translate(2.000000, 0.000000)">
                <path d="M3.24403065,7 L4.75596935,7 L4,4.48010217 L3.24403065,7 Z M2.64403065,9 L1.95782629,11.2873479 C1.79912843,11.8163407 1.24164496,12.1165241 0.712652114,11.9578263 C0.183659264,11.7991284 -0.11652414,11.241645 0.0421737148,10.7126521 L3.04217371,0.712652114 C3.32723456,-0.237550705 4.67276544,-0.237550705 4.95782629,0.712652114 L7.95782629,10.7126521 C8.11652414,11.241645 7.81634074,11.7991284 7.28734789,11.9578263 C6.75835504,12.1165241 6.20087157,11.8163407 6.04217371,11.2873479 L5.35596935,9 L2.64403065,9 Z M6.85355339,13.1464466 L8.40073055,14.6936238 L11.0712535,10.2427521 C11.2133276,10.005962 11.5204577,9.92917946 11.7572479,10.0712535 C11.994038,10.2133276 12.0708205,10.5204577 11.9287465,10.7572479 L8.92874646,15.7572479 C8.76138841,16.036178 8.37645825,16.083565 8.14644661,15.8535534 L6.14644661,13.8535534 C5.95118446,13.6582912 5.95118446,13.3417088 6.14644661,13.1464466 C6.34170876,12.9511845 6.65829124,12.9511845 6.85355339,13.1464466 Z" id="Combined-Shape"></path>
            </g>
        </g>
    </g>
</svg>