<!-- This Source Code Form is subject to the terms of the Mozilla Public
   - License, v. 2.0. If a copy of the MPL was not distributed with this
   - file, You can obtain one at http://mozilla.org/MPL/2.0/. -->
<svg width="16" height="16" xmlns="http://www.w3.org/2000/svg">
  <g fill="none" fill-rule="evenodd">
    <path d="M15 8.758a4.474 4.474 0 0 0-2-.73V2.17c1.165.412 2 1.523 2 2.829v3.758zM8.758 15H4a3 3 0 0 1-3-3V5c0-1.306.835-2.417 2-2.83V12a1 1 0 0 0 1 1h4.027c.082.734.34 1.416.73 2zM6 2h4v2H6V2z" fill="#000" fill-rule="nonzero"/>
    <rect fill="#000" x="4" width="1" height="4" rx=".5"/>
    <rect fill="#000" x="11" width="1" height="4" rx=".5"/>
    <path fill="#000" d="M4 7h3v3H4zM3 5h10v1H3z"/>
    <path d="M12.5 16a3.5 3.5 0 1 1 0-7 3.5 3.5 0 0 1 0 7zm.5-4v-1.5a.5.5 0 1 0-1 0V12h-1.5a.5.5 0 1 0 0 1H12v1.5a.5.5 0 1 0 1 0V13h1.5a.5.5 0 1 0 0-1H13z" fill="#0F0F0F" fill-rule="nonzero"/>
  </g>
</svg>
