<!-- This Source Code Form is subject to the terms of the Mozilla Public
   - License, v. 2.0. If a copy of the MPL was not distributed with this
   - file, You can obtain one at http://mozilla.org/MPL/2.0/. -->
<svg width="16" height="16" viewBox="0 0 16 16" xmlns="http://www.w3.org/2000/svg">
  <title>
    Artboard 2 Copy 13
  </title>
  <g fill="none" fill-rule="evenodd">
    <circle stroke="#000" stroke-width="2" cx="8" cy="5" r="3"/>
    <path d="M8.027 13c.082.734.34 1.416.73 2H1a7 7 0 0 1 9.51-6.537 4.52 4.52 0 0 0-1.786 1.589A5.001 5.001 0 0 0 3.417 13h4.61z" fill="#000" fill-rule="nonzero"/>
    <path d="M12.5 16a3.5 3.5 0 1 1 0-7 3.5 3.5 0 0 1 0 7zm.5-4v-1.5a.5.5 0 1 0-1 0V12h-1.5a.5.5 0 1 0 0 1H12v1.5a.5.5 0 1 0 1 0V13h1.5a.5.5 0 1 0 0-1H13z" fill="#0F0F0F" fill-rule="nonzero"/>
  </g>
</svg>
