<!-- This Source Code Form is subject to the terms of the Mozilla Public
   - License, v. 2.0. If a copy of the MPL was not distributed with this
   - file, You can obtain one at http://mozilla.org/MPL/2.0/. -->
<svg xmlns="http://www.w3.org/2000/svg" viewBox="0 0 18 18">
  <path class="normal" d="M9 1.5C4.8 1.5 1.5 4.8 1.5 9c0 4.1 3.3 7.5 7.5 7.5 4.1 0 7.5-3.3 7.5-7.5S13.1 1.5 9 1.5zm0 2c.8 0 1.5.6 1.5 1.5 0 .8-.7 1.5-1.5 1.5-.9 0-1.5-.7-1.5-1.5 0-.9.6-1.5 1.5-1.5zm1.5 9.5c0 .8-.7 1.5-1.5 1.5-.9 0-1.5-.7-1.5-1.5V9c0-.9.6-1.5 1.5-1.5.8 0 1.5.6 1.5 1.5z"/>
</svg>
