<?xml version="1.0" encoding="UTF-8"?>
<svg width="16px" height="16px" viewBox="0 0 16 16" version="1.1" xmlns="http://www.w3.org/2000/svg" xmlns:xlink="http://www.w3.org/1999/xlink">
    <!-- Generator: Sketch 46.1 (44463) - http://www.bohemiancoding.com/sketch -->
    <title>Artboard 2 Copy 17</title>
    <desc>Created with Sketch.</desc>
    <defs></defs>
    <g id="Page-1" stroke="none" stroke-width="1" fill="none" fill-rule="evenodd">
        <g id="Artboard-2-Copy-17" fill="#000000">
            <path d="M6,2 L10,2 L10,4 L6,4 L6,2 Z M13,2.17070571 C14.1651924,2.58254212 15,3.69378117 15,5 L15,12 C15,13.6568542 13.6568542,15 12,15 L4,15 C2.34314575,15 1,13.6568542 1,12 L1,5 C1,3.69378117 1.83480763,2.58254212 3,2.17070571 L3,12 C3,12.5522847 3.44771525,13 4,13 L12,13 C12.5522847,13 13,12.5522847 13,12 L13,2.17070571 Z" id="Combined-Shape" fill-rule="nonzero"></path>
            <rect id="Rectangle-4" x="4" y="0" width="1" height="4" rx="0.5"></rect>
            <rect id="Rectangle-4" x="11" y="0" width="1" height="4" rx="0.5"></rect>
            <rect id="Rectangle" x="4" y="7" width="3" height="3"></rect>
            <rect id="Rectangle-5" x="3" y="5" width="10" height="1"></rect>
        </g>
    </g>
</svg>