<svg xmlns="http://www.w3.org/2000/svg"
     viewBox="0 0 18 18">
  <path id="newlist" class="normal" d="M 6.5,7.5 C 6.3,7.8 6,8.1 6,8.5 c 0,0.3 0.4,0.6 0.5,1 0.2,1.5 0.8,2.3 3,3 l 0,1 c -2.3,0 -4,-0.2 -4,2 l 11,0 c 0,-2.1 -1.7,-2 -4,-2 l 0,-1 c 2.3,-0.7 2.8,-1.5 3,-3 0,-0.3 0.5,-0.6 0.5,-1 0,-0.4 -0.4,-0.7 -0.5,-1 0,-6 -9,-6 -9,0 z m 3,-3 3,0 0,2 2,0 0,3 -2,0 0,2 -3,0 0,-2 -2,0 0,-3 2,0 z M 7,2 C 4.4,2.2 2.5,2.8 2.5,5.5 2.3,5.8 2,6.1 2,6.5 2,6.8 2.3,7.1 2.5,7.5 3,9.6 2.8,11 5,11.4 2.4,11.4 1.5,11.3 1.5,13.5 l 2.5,0 C 4.5,12.5 4.5,12.2 5.2,12 4,11 4.5,9.2 4,8.5 4,8 4.6,7 4.5,6.5 4.7,4.6 5.3,3 7,2 Z"/>
</svg>