<!-- This Source Code Form is subject to the terms of the Mozilla Public
   - License, v. 2.0. If a copy of the MPL was not distributed with this
   - file, You can obtain one at http://mozilla.org/MPL/2.0/. -->
<svg width="16" height="16" xmlns="http://www.w3.org/2000/svg">
  <g fill-rule="nonzero" fill="none">
    <path d="M12.465 8a4.502 4.502 0 0 0-4.229 3.058A5.006 5.006 0 0 0 4.416 14h3.84c.28.792.775 1.482 1.415 2H2a7.003 7.003 0 0 1 4.812-6.651A4 4 0 1 1 12.465 8zm3.506 7.364c.02.21.029.421.029.636h-.671c.235-.19.45-.403.642-.636zM9 8a2 2 0 1 0 0-4 2 2 0 0 0 0 4z" fill="#000"/>
    <path d="M4.049 6.7A4 4 0 0 1 9.7 1.049 5 5 0 0 0 4.049 6.7zM1.252 14H0c0-2.89 1.75-5.37 4.249-6.439.178.543.447 1.045.788 1.488A8.016 8.016 0 0 0 1.252 14z" fill="#000"/>
    <path d="M12.5 16a3.5 3.5 0 1 1 0-7 3.5 3.5 0 0 1 0 7zm.5-4v-1.5a.5.5 0 1 0-1 0V12h-1.5a.5.5 0 1 0 0 1H12v1.5a.5.5 0 1 0 1 0V13h1.5a.5.5 0 1 0 0-1H13z" fill="#0F0F0F"/>
  </g>
</svg>
