<?xml version="1.0" encoding="UTF-8"?>
<svg width="16px" height="16px" viewBox="0 0 16 16" version="1.1" xmlns="http://www.w3.org/2000/svg" xmlns:xlink="http://www.w3.org/1999/xlink">
    <!-- Generator: Sketch 46.1 (44463) - http://www.bohemiancoding.com/sketch -->
    <title>Artboard 2 Copy 15</title>
    <desc>Created with Sketch.</desc>
    <defs></defs>
    <g id="Page-1" stroke="none" stroke-width="1" fill="none" fill-rule="evenodd">
        <g id="Artboard-2-Copy-15" fill-rule="nonzero">
            <path d="M12.4647932,8.00013485 C10.4991565,8.01519708 8.83352226,9.290524 8.23600558,11.0580006 C6.51908287,11.321247 5.089847,12.4578287 4.41604369,14 L8.25605856,14 C8.53593426,14.7918412 9.03114611,15.4819616 9.67133283,16 L2,16 C2,12.8982423 4.01740683,10.2676752 6.81166269,9.3488565 L6.81166269,9.3488565 C5.72068836,8.63449838 5,7.40141208 5,6 C5,3.790861 6.790861,2 9,2 C11.209139,2 13,3.790861 13,6 C13,6.72862995 12.8051817,7.41175764 12.4647932,8.00013485 Z M15.9714585,15.363581 C15.9903494,15.573193 16,15.7854695 16,16 L15.3286672,16 C15.5636171,15.8098788 15.7790402,15.5965798 15.9714585,15.363581 Z M9,8 C10.1045695,8 11,7.1045695 11,6 C11,4.8954305 10.1045695,4 9,4 C7.8954305,4 7,4.8954305 7,6 C7,7.1045695 7.8954305,8 9,8 Z" id="Combined-Shape" fill="#000000"></path>
            <path d="M4.04859747,6.69989247 C3.39734965,5.98836862 3,5.0405873 3,4 C3,1.790861 4.790861,0 7,0 C8.0405873,0 8.98836862,0.397349653 9.69989247,1.04859747 C9.47119148,1.01656314 9.23753,1 9,1 C6.23857625,1 4,3.23857625 4,6 C4,6.23753 4.01656314,6.47119148 4.04859747,6.69989247 Z M1.25203497,14 L0,14 C0,11.1107674 1.75042203,8.6303677 4.24863554,7.56143153 C4.42691363,8.10424691 4.69561768,8.60605045 5.0369309,9.04902537 C3.18492509,10.1072161 1.7965939,11.8842402 1.25203497,14 Z" id="Combined-Shape" fill="#000000"></path>
            <path d="M12.5,16 C10.5670034,16 9,14.4329966 9,12.5 C9,10.5670034 10.5670034,9 12.5,9 C14.4329966,9 16,10.5670034 16,12.5 C16,14.4329966 14.4329966,16 12.5,16 Z M13,12 L13,10.5 C13,10.2238576 12.7761424,10 12.5,10 C12.2238576,10 12,10.2238576 12,10.5 L12,12 L10.5,12 C10.2238576,12 10,12.2238576 10,12.5 C10,12.7761424 10.2238576,13 10.5,13 L12,13 L12,14.5 C12,14.7761424 12.2238576,15 12.5,15 C12.7761424,15 13,14.7761424 13,14.5 L13,13 L14.5,13 C14.7761424,13 15,12.7761424 15,12.5 C15,12.2238576 14.7761424,12 14.5,12 L13,12 Z" id="Combined-Shape" fill="#0F0F0F"></path>
        </g>
    </g>
</svg>