<!-- This Source Code Form is subject to the terms of the Mozilla Public
   - License, v. 2.0. If a copy of the MPL was not distributed with this
   - file, You can obtain one at http://mozilla.org/MPL/2.0/. -->
<svg width="16" height="16" xmlns="http://www.w3.org/2000/svg" fill="context-fill" fill-opacity="context-fill-opacity">
  <path d="M2 10V6h2v4H2zm.17 3H11a1 1 0 0 0 1-1V4a1 1 0 0 0-1-1H2.17A3.001 3.001 0 0 1 5 1h6a3 3 0 0 1 3 3v8a3 3 0 0 1-3 3H5a3.001 3.001 0 0 1-2.83-2zM1.5 4h2a.5.5 0 0 1 0 1h-2a.5.5 0 0 1 0-1zm0 7h2a.5.5 0 1 1 0 1h-2a.5.5 0 1 1 0-1z"/>
  <path d="M10 10a2 2 0 1 0-4 0h4zM6.547 7.375a2 2 0 1 1 2.906 0A3 3 0 0 1 10.829 11H5.171a3 3 0 0 1 1.377-3.625zM8 7a1 1 0 1 0 0-2 1 1 0 0 0 0 2z"/>
</svg>
