<!-- This Source Code Form is subject to the terms of the Mozilla Public
   - License, v. 2.0. If a copy of the MPL was not distributed with this
   - file, You can obtain one at http://mozilla.org/MPL/2.0/. -->
<svg width="16" height="16" xmlns="http://www.w3.org/2000/svg">
  <g fill="none" fill-rule="evenodd">
    <path d="M5 3a1 1 0 0 0-1 1v8a1 1 0 0 0 1 1h6a1 1 0 0 0 1-1V4a1 1 0 0 0-1-1H5zM2 9V7h2V4H2a3 3 0 0 1 3-3h6a3 3 0 0 1 3 3v8a3 3 0 0 1-3 3H5a3 3 0 0 1-3-3h2V9H2z" fill="#000" fill-rule="nonzero"/>
    <rect x="1" y="1" width="3" height="1" rx=".5" transform="translate(0 4)" fill="#000"/>
    <rect width="3" height="1" rx=".5" transform="translate(1 10)" fill="#000"/>
    <path d="M5.55 10.5h4.9a2.5 2.5 0 1 0-4.9 0z" stroke="#050505"/>
    <circle stroke="#050505" cx="8" cy="6" r="1.5"/>
  </g>
</svg>
