<!-- This Source Code Form is subject to the terms of the Mozilla Public
   - License, v. 2.0. If a copy of the MPL was not distributed with this
   - file, You can obtain one at http://mozilla.org/MPL/2.0/. -->
<svg width="16" height="16" viewBox="0 0 16 16" xmlns="http://www.w3.org/2000/svg">
  <title>
    Artboard 2 Copy 6
  </title>
  <g fill="none" fill-rule="evenodd">
    <path d="M5.17 7H3a1 1 0 0 0-1 1v5a1 1 0 0 0 1 1h10a1 1 0 0 0 1-1V8a1 1 0 0 0-1-1h-2.17a3.001 3.001 0 0 1-5.66 0z" stroke="#000" stroke-width="2"/>
    <path d="M3.5 5h9a.5.5 0 1 0 0-1h-9a.5.5 0 0 0 0 1zM4.5 3h7a.5.5 0 1 0 0-1h-7a.5.5 0 0 0 0 1z" fill="#000" fill-rule="nonzero"/>
  </g>
</svg>
