<?xml version="1.0" encoding="UTF-8"?>
<svg width="16px" height="16px" viewBox="0 0 16 16" version="1.1" xmlns="http://www.w3.org/2000/svg" xmlns:xlink="http://www.w3.org/1999/xlink">
    <!-- Generator: Sketch 46.1 (44463) - http://www.bohemiancoding.com/sketch -->
    <title>Artboard 2 Copy 25</title>
    <desc>Created with Sketch.</desc>
    <defs></defs>
    <g id="Page-1" stroke="none" stroke-width="1" fill="none" fill-rule="evenodd">
        <g id="Artboard-2-Copy-25">
            <path d="M0.5,7.5 L4.5,7.5" id="Line" stroke="#000000" stroke-linecap="round"></path>
            <path d="M10.5,7.5 L14.5,7.5" id="Line" stroke="#000000" stroke-linecap="round"></path>
            <path d="M7.5,10.5 L7.5,14.5" id="Line-2" stroke="#000000" stroke-linecap="round"></path>
            <path d="M7.5,0.5 L7.5,4.5" id="Line-2" stroke="#000000" stroke-linecap="round"></path>
            <circle id="Oval-8" fill="#000000" cx="7.5" cy="7.5" r="1"></circle>
            <path d="M3.5,5.5 L5.5,7.5" id="Line-3" stroke="#000000" stroke-linecap="round"></path>
            <path d="M9.5,5.5 L11.5,7.5" id="Line-3" stroke="#000000" stroke-linecap="round" transform="translate(10.500000, 6.500000) scale(-1, 1) translate(-10.500000, -6.500000) "></path>
            <path d="M7.5,3.5 L9.5,5.5" id="Line-3" stroke="#000000" stroke-linecap="round" transform="translate(8.500000, 4.500000) scale(-1, 1) translate(-8.500000, -4.500000) "></path>
            <path d="M5.5,3.5 L7.5,5.5" id="Line-3" stroke="#000000" stroke-linecap="round"></path>
            <path d="M7.5,9.5 L9.5,11.5" id="Line-3" stroke="#000000" stroke-linecap="round"></path>
            <path d="M5.5,9.5 L7.5,11.5" id="Line-3" stroke="#000000" stroke-linecap="round" transform="translate(6.500000, 10.500000) scale(-1, 1) translate(-6.500000, -10.500000) "></path>
            <path d="M3.5,7.5 L5.5,9.5" id="Line-3" stroke="#000000" stroke-linecap="round" transform="translate(4.500000, 8.500000) scale(-1, 1) translate(-4.500000, -8.500000) "></path>
            <path d="M9.5,7.5 L11.5,9.5" id="Line-3" stroke="#000000" stroke-linecap="round" transform="translate(10.500000, 8.500000) scale(-1, -1) translate(-10.500000, -8.500000) "></path>
        </g>
    </g>
</svg>