<!-- This Source Code Form is subject to the terms of the Mozilla Public
   - License, v. 2.0. If a copy of the MPL was not distributed with this
   - file, You can obtain one at http://mozilla.org/MPL/2.0/. -->
<svg width="16" height="16" xmlns="http://www.w3.org/2000/svg">
  <path fill="context-fill" d="M14.38 7.42c-.07-.24-.38-.32-.53-.16-.46.39-.98.7-1.53.93A8.476 8.476 0 0 0 5.17.104C4.9.06 4.7.36 4.83.6c1.01 1.72 1.09 3.8.29 5.56-.39-.54-.68-1.16-.87-1.78-.07-.22-.35-.38-.53-.16C2.2 5.5 1.3 7.35 1.3 9.3 1.3 13 4.35 16 8 16c3.67 0 6.66-2.99 6.66-6.66 0-.65 0-1.3-.28-1.91zM8 15.66c-1.51 0-2.66-1.22-2.66-2.74-.04-2.21 1.58-4.3 3.76-4.8-1.24.88-1.18 2.69-.69 3.43.34-.28.59-.58.69-1.03 1.15.45 1.56 1.42 1.56 2.48 0 1.51-1.15 2.66-2.66 2.66z"/>
</svg>
